<svg width="800" height="300" viewBox="0 0 800 300" fill="none" xmlns="http://www.w3.org/2000/svg">
<path d="M133.332 276.256L35.7028 219.876C33.3621 218.519 31.4186 216.571 30.0669 214.228C28.7151 211.884 28.0024 209.227 28 206.521V93.8053C27.9944 91.092 28.7033 88.4251 30.0555 86.0728C31.4076 83.7205 33.3554 81.7658 35.7028 80.4052L133.332 24.0701C135.681 22.7139 138.345 22 141.058 22C143.77 22 146.434 22.7139 148.783 24.0701L246.367 80.4507C248.714 81.8113 250.662 83.7661 252.014 86.1184C253.366 88.4707 254.075 91.1376 254.07 93.8508V206.521C254.075 209.234 253.366 211.901 252.014 214.253C250.662 216.606 248.714 218.56 246.367 219.921L148.783 276.256C146.434 277.612 143.77 278.326 141.058 278.326C138.345 278.326 135.681 277.612 133.332 276.256Z" fill="#4049E0"/>
<path d="M85.5513 130.689C81.7627 130.689 79.8049 127.351 79.8049 124.914L79.8319 100.9C79.8363 97.7331 81.0413 95.6405 83.7824 94.0548L126.362 69.4442C127.227 68.924 128.238 68.6244 129.319 68.6244C132.491 68.6244 135.063 71.1967 135.063 74.3682C135.063 76.5305 133.867 78.4137 132.101 79.3935L91.3239 102.966V114.98L169.11 70.0172C170.481 69.2244 171.772 68.828 173.063 68.828C174.354 68.828 175.645 69.2244 177.016 70.0172L196.73 81.4125C199.473 82.9982 200.685 85.0908 200.683 88.2577L200.658 112.296C200.658 116.085 197.34 118.045 194.903 118.045C193.927 118.045 192.941 117.797 192.037 117.274L173.064 106.287L154.15 117.22C153.288 117.74 152.276 118.04 151.195 118.04C148.024 118.04 145.451 115.468 145.451 112.296C145.451 110.134 146.647 108.251 148.413 107.271L169.113 95.3057C170.485 94.513 171.776 94.1166 173.067 94.1166C174.358 94.1166 175.648 94.513 177.02 95.3057L189.195 102.342V90.3277L173.067 81.0047L88.4341 129.917C87.5579 130.422 86.5628 130.689 85.5513 130.689ZM129.329 231.816C128.248 231.816 127.234 231.518 126.372 230.998L105.665 219.029C102.923 217.443 101.716 215.35 101.716 212.183V147.533L88.5458 155.147C87.6831 155.667 86.6717 155.967 85.5906 155.967C82.4191 155.967 79.8468 153.394 79.8468 150.223C79.8468 148.061 81.0608 146.209 82.8086 145.198L104.558 132.615C105.435 132.111 106.43 131.842 107.442 131.842C110.541 131.842 113.176 134.388 113.176 137.584L113.201 210.118L132.111 221.047C133.877 222.026 135.073 223.91 135.073 226.072C135.073 229.243 132.5 231.816 129.329 231.816ZM129.325 206.534C126.154 206.534 123.581 203.962 123.581 200.79V124.938C123.581 121.767 126.154 119.194 129.325 119.194C132.497 119.194 135.069 121.767 135.069 124.938V200.79C135.069 203.962 132.497 206.534 129.325 206.534ZM151.197 219.177C148.025 219.177 145.453 216.607 145.453 213.435V138.83C145.453 135.663 146.66 133.57 149.404 131.984L170.111 120.015C170.976 119.494 171.987 119.195 173.068 119.195C176.24 119.195 178.812 121.767 178.812 124.939C178.812 127.101 177.616 128.984 175.85 129.964L156.941 140.893V213.43C156.941 216.602 154.368 219.177 151.197 219.177Z" fill="white"/>
<path d="M288.751 92.7112V83.4662H319.568V92.7112H309.296V165.644H299.023V92.7112H288.751ZM330.867 165.644V83.4662H341.139V165.644H330.867ZM356.548 165.644V83.4662H365.793L376.578 134.827H377.606L388.392 83.4662H397.636V165.644H387.364V124.555L380.071 165.644H373.908L366.82 124.555V165.644H356.548ZM413.045 165.644V83.4662H436.671V91.6839H423.317V118.392H434.616V126.609H423.317V155.372H436.671V165.644H413.045ZM446.943 140.58H457.318C457.523 153.831 458.551 156.399 462.249 156.399C467.282 156.399 467.282 152.187 467.282 140.99C467.282 124.555 446.943 128.972 446.943 107.092C446.943 94.252 446.943 82.439 462.351 82.439C473.753 82.439 476.835 88.9104 477.554 104.421H467.282C466.871 93.2248 465.638 90.6567 462.351 90.6567C457.318 90.6567 457.318 96.2037 457.318 107.092C457.318 123.014 477.76 117.364 477.76 140.99C477.76 155.372 477.76 166.671 462.249 166.671C450.333 166.671 447.559 159.583 446.943 140.58ZM487.005 83.4662H497.277L503.44 115.105H504.467L510.631 83.4662H520.903L509.09 129.896V165.644H498.818V129.896L487.005 83.4662ZM532.202 165.644V83.4662H541.447L554.904 133.8L554.801 132.773V83.4662H565.073V165.644H555.828L542.372 120.446L542.474 121.473V165.644H532.202ZM579.454 122.398C579.454 93.7384 579.454 82.439 593.835 82.439C604.416 82.439 607.292 88.9104 608.011 104.421H598.458C598.047 93.2248 596.917 90.6567 593.835 90.6567C589.11 90.6567 589.11 95.6901 589.11 122.398C589.11 152.084 589.11 156.399 593.835 156.399C597.225 156.399 598.252 153.831 598.458 140.58H608.114C607.497 159.583 604.929 166.671 593.835 166.671C579.454 166.671 579.454 155.269 579.454 122.398ZM648.175 144.688H657.728C658.139 155.885 659.269 158.453 663.378 158.453C668.309 158.453 668.617 156.091 669.028 144.791V141.504C669.028 132.156 666.46 130.821 663.378 130.821H651.873L665.227 91.7867H649.819V83.5689H677.759L663.892 122.603H665.741C675.499 122.603 678.581 132.156 678.581 141.504V144.791C677.759 161.638 675.294 166.671 663.378 166.671C651.771 166.671 648.894 160.199 648.175 144.688ZM693.989 122.398C693.989 93.7384 693.989 82.439 709.5 82.439C720.8 82.439 723.881 88.9104 724.703 104.421H714.431C714.02 93.2248 712.787 90.6567 709.5 90.6567C704.672 90.6567 704.364 95.1765 704.364 118.597H709.5C720.8 118.597 724.806 125.069 724.806 140.58C724.19 159.583 721.416 166.671 709.5 166.671C693.989 166.671 693.989 155.269 693.989 122.398ZM704.364 126.815C704.364 152.495 704.672 156.399 709.5 156.399C713.096 156.399 714.226 153.831 714.431 140.58C714.431 129.383 712.787 126.815 709.5 126.815H704.364ZM740.214 122.398C740.214 93.7384 740.831 82.439 756.239 82.439C771.647 82.439 772.263 93.7384 772.263 122.398C772.263 155.269 771.647 166.671 756.239 166.671C740.831 166.671 740.214 155.269 740.214 122.398ZM750.486 122.398V132.567L761.888 105.243C761.58 93.3275 760.45 90.6567 756.239 90.6567C750.486 90.6567 750.486 95.6901 750.486 122.398ZM750.589 139.758C750.795 153.933 751.924 156.399 756.239 156.399C761.991 156.399 761.991 152.084 761.991 122.398V112.434L750.589 139.758Z" fill="#4049E0"/>
<path d="M305.264 187.762H298.598V216.874H295.416V187.762H288.751V184.623H305.264V187.762ZM334.204 216.874L330.506 216.874L323.755 203.844H318.165V216.874H315.284V184.623H322.68C325.633 184.623 327.969 185.469 329.689 187.16C331.409 188.851 332.269 191.173 332.269 194.126C332.269 195.043 332.148 195.975 331.904 196.921C331.66 197.867 331.309 198.756 330.85 199.587C330.392 200.419 329.825 201.171 329.152 201.845C328.478 202.519 327.711 203.042 326.851 203.414L334.204 216.874ZM329.216 193.911C329.216 192.908 329.044 192.005 328.7 191.202C328.356 190.399 327.883 189.719 327.281 189.16C326.679 188.601 325.963 188.171 325.131 187.87C324.3 187.569 323.397 187.418 322.422 187.418H318.165V200.877H322.68C324.974 200.877 326.636 200.261 327.668 199.028C328.7 197.796 329.216 196.09 329.216 193.911ZM362.715 216.874H359.705L357.426 207.629H348.052L345.773 216.874H342.849L351.578 184.623H354.029L362.715 216.874ZM356.695 204.747L352.868 188.794L348.783 204.747H356.695ZM386.41 205.693C386.381 207.299 386.324 208.804 386.238 210.209C386.152 211.613 385.858 212.839 385.356 213.885C384.855 214.932 384.059 215.756 382.97 216.358C381.88 216.96 380.332 217.261 378.326 217.261C376.921 217.261 375.731 217.053 374.757 216.637C373.782 216.222 372.993 215.634 372.391 214.874C371.789 214.114 371.352 213.197 371.08 212.122C370.808 211.047 370.671 209.85 370.671 208.532V193.051C370.671 191.646 370.815 190.399 371.101 189.31C371.388 188.221 371.854 187.303 372.499 186.558C373.144 185.813 373.983 185.254 375.015 184.881C376.047 184.508 377.308 184.322 378.799 184.322C380.605 184.322 382.009 184.63 383.013 185.246C384.016 185.863 384.769 186.687 385.27 187.719C385.772 188.751 386.08 189.934 386.195 191.267C386.31 192.6 386.381 193.983 386.41 195.416H383.572C383.572 194.47 383.565 193.495 383.55 192.492C383.536 191.489 383.393 190.579 383.12 189.762C382.848 188.945 382.375 188.271 381.701 187.74C381.028 187.21 380.031 186.945 378.713 186.945C377.709 186.945 376.871 187.088 376.197 187.375C375.523 187.662 374.993 188.077 374.606 188.622C374.219 189.167 373.947 189.812 373.789 190.557C373.631 191.302 373.553 192.134 373.553 193.051L373.639 208.747C373.639 209.607 373.703 210.388 373.832 211.09C373.961 211.792 374.198 212.394 374.542 212.896C374.886 213.398 375.366 213.785 375.982 214.057C376.599 214.33 377.38 214.466 378.326 214.466C379.788 214.466 380.877 214.215 381.594 213.713C382.31 213.211 382.812 212.545 383.099 211.714C383.386 210.882 383.536 209.943 383.55 208.897C383.565 207.851 383.572 206.783 383.572 205.693H386.41ZM414.061 216.874H410.793L403.783 200.318L400.128 205.951V216.874H397.247V184.623H400.128V200.103L409.847 184.623H413.33L405.89 197.824L414.061 216.874ZM456.333 184.623L448.722 202.167V216.874H445.626V202.167L438.014 184.623H441.455L447.131 198.469L452.893 184.623H456.333ZM481.189 208.532C481.189 211.57 480.508 213.785 479.146 215.175C477.784 216.565 475.57 217.261 472.502 217.261C469.693 217.261 467.636 216.487 466.332 214.939C465.027 213.391 464.375 211.255 464.375 208.532V193.051C464.375 190.098 465.07 187.905 466.461 186.472C467.851 185.039 470.037 184.322 473.018 184.322C475.856 184.322 477.928 185.074 479.232 186.579C480.536 188.085 481.189 190.213 481.189 192.965V208.532ZM478.178 208.446L478.178 192.922C478.178 191.288 477.748 189.926 476.888 188.837C476.028 187.748 474.724 187.203 472.975 187.203C470.883 187.203 469.428 187.748 468.611 188.837C467.794 189.926 467.385 191.46 467.385 193.438V208.274C467.385 209.105 467.478 209.886 467.665 210.617C467.851 211.348 468.152 211.986 468.568 212.531C468.983 213.075 469.514 213.505 470.159 213.821C470.804 214.136 471.585 214.294 472.502 214.294C474.509 214.294 475.957 213.806 476.845 212.832C477.734 211.857 478.178 210.395 478.178 208.446ZM509.054 208.532C509.054 211.398 508.359 213.57 506.969 215.046C505.578 216.522 503.436 217.261 500.54 217.261C497.788 217.261 495.717 216.472 494.326 214.896C492.936 213.319 492.241 211.198 492.241 208.532V184.623H495.294V208.403C495.294 209.205 495.401 209.958 495.616 210.66C495.831 211.362 496.154 211.979 496.584 212.509C497.014 213.039 497.552 213.455 498.197 213.756C498.842 214.057 499.594 214.208 500.454 214.208C502.547 214.208 504.002 213.627 504.819 212.466C505.636 211.305 506.044 209.75 506.044 207.8V184.623H509.054L509.054 208.532ZM539.199 216.874L535.501 216.874L528.75 203.844H523.16V216.874H520.279V184.623H527.675C530.628 184.623 532.964 185.469 534.684 187.16C536.404 188.851 537.264 191.173 537.264 194.126C537.264 195.043 537.142 195.975 536.899 196.921C536.655 197.867 536.304 198.756 535.845 199.587C535.386 200.419 534.82 201.171 534.146 201.845C533.473 202.519 532.706 203.042 531.846 203.414L539.199 216.874ZM534.211 193.911C534.211 192.908 534.039 192.005 533.695 191.202C533.351 190.399 532.878 189.719 532.276 189.16C531.674 188.601 530.957 188.171 530.126 187.87C529.295 187.569 528.392 187.418 527.417 187.418H523.16V200.877H527.675C529.968 200.877 531.631 200.261 532.663 199.028C533.695 197.796 534.211 196.09 534.211 193.911ZM593.942 184.623L586.546 216.874H583.793L578.418 190.557L573.086 216.874H570.377L562.981 184.623H566.077L571.495 210.424L577.429 184.709L577.386 184.623H577.429H579.493L579.73 185.676C579.888 186.379 580.095 187.296 580.353 188.429C580.611 189.561 580.905 190.865 581.235 192.342C581.565 193.818 581.909 195.33 582.267 196.878C582.625 198.426 582.976 199.96 583.32 201.479C583.664 202.999 583.98 204.382 584.266 205.629C584.553 206.876 584.797 207.93 584.998 208.79C585.198 209.65 585.327 210.194 585.385 210.424L590.803 184.623H593.942ZM619.313 208.532C619.313 211.57 618.633 213.785 617.271 215.175C615.909 216.565 613.695 217.261 610.627 217.261C607.818 217.261 605.761 216.487 604.457 214.939C603.152 213.391 602.5 211.255 602.5 208.532V193.051C602.5 190.098 603.195 187.905 604.586 186.472C605.976 185.039 608.162 184.322 611.143 184.322C613.981 184.322 616.053 185.074 617.357 186.579C618.661 188.085 619.313 190.213 619.313 192.965V208.532ZM616.303 208.446L616.303 192.922C616.303 191.288 615.873 189.926 615.013 188.837C614.153 187.748 612.849 187.203 611.1 187.203C609.007 187.203 607.553 187.748 606.736 188.837C605.919 189.926 605.51 191.46 605.51 193.438V208.274C605.51 209.105 605.603 209.886 605.79 210.617C605.976 211.348 606.277 211.986 606.693 212.531C607.108 213.075 607.639 213.505 608.284 213.821C608.929 214.136 609.71 214.294 610.627 214.294C612.634 214.294 614.082 213.806 614.97 212.832C615.859 211.857 616.303 210.395 616.303 208.446ZM649.2 216.874L645.502 216.874L638.751 203.844H633.161V216.874H630.28V184.623H637.676C640.629 184.623 642.965 185.469 644.685 187.16C646.405 188.851 647.265 191.173 647.265 194.126C647.265 195.043 647.143 195.975 646.9 196.921C646.656 197.867 646.305 198.756 645.846 199.587C645.387 200.419 644.821 201.171 644.148 201.845C643.474 202.519 642.707 203.042 641.847 203.414L649.2 216.874ZM644.212 193.911C644.212 192.908 644.04 192.005 643.696 191.202C643.352 190.399 642.879 189.719 642.277 189.16C641.675 188.601 640.958 188.171 640.127 187.87C639.296 187.569 638.393 187.418 637.418 187.418H633.161V200.877H637.676C639.969 200.877 641.632 200.261 642.664 199.028C643.696 197.796 644.212 196.09 644.212 193.911ZM675.561 216.874H672.293L665.284 200.318L661.629 205.951V216.874H658.748V184.623H661.629V200.103L671.347 184.623H674.83L667.391 197.824L675.561 216.874Z" fill="#4049E0"/>
</svg>
