<svg width="626" height="164" viewBox="0 0 626 164" fill="none" xmlns="http://www.w3.org/2000/svg">
<path d="M5.74645 62.0651C1.95778 62.0651 0 58.7267 0 56.2894L0.0270566 32.2757C0.0314561 29.1087 1.23645 27.0161 3.97753 25.4304L46.5569 0.819824C47.4218 0.299577 48.4332 0 49.5144 0C52.6859 0 55.2582 2.57233 55.2582 5.74382C55.2582 7.90613 54.0622 9.78928 52.2964 10.7691L11.5191 34.3413V46.356L89.3047 1.39278C90.6764 0.600016 91.9671 0.203629 93.2581 0.203629C94.5492 0.203629 95.8397 0.600016 97.2116 1.39278L116.925 12.7881C119.668 14.3738 120.88 16.4664 120.878 19.6334L120.853 43.6718C120.853 47.4605 117.535 49.4201 115.098 49.4201C114.122 49.4201 113.136 49.1725 112.233 48.6498L93.2596 37.6622L74.3455 48.5958C73.4828 49.116 72.4714 49.4156 71.3902 49.4156C68.2188 49.4156 65.6464 46.8433 65.6464 43.6718C65.6464 41.5095 66.8424 39.6263 68.6082 38.6465L89.3085 26.6813C90.6802 25.8886 91.9709 25.4922 93.262 25.4922C94.553 25.4922 95.8435 25.8886 97.2154 26.6813L109.39 33.7181V21.7034L93.2623 12.3803L8.6292 61.2929C7.75306 61.7975 6.75789 62.0651 5.74645 62.0651ZM49.5241 163.191C48.443 163.191 47.4296 162.894 46.5668 162.374L25.8598 150.404C23.1185 148.818 21.9112 146.726 21.9112 143.559V78.909L8.74097 86.5224C7.87823 87.0426 6.86683 87.3422 5.78572 87.3422C2.61423 87.3422 0.0418962 84.7699 0.0418962 81.5984C0.0418962 79.4361 1.25591 77.5849 3.00368 76.5731L24.7536 63.9908C25.6298 63.4862 26.6254 63.218 27.6368 63.218C30.7362 63.218 33.3716 65.7633 33.3716 68.9596L33.3965 141.493L52.306 152.422C54.0719 153.402 55.2678 155.285 55.2678 157.448C55.2678 160.619 52.6956 163.191 49.5241 163.191ZM49.5204 137.91C46.3489 137.91 43.7766 135.338 43.7766 132.166V56.3138C43.7766 53.1423 46.3489 50.5699 49.5204 50.5699C52.6919 50.5699 55.2642 53.1423 55.2642 56.3138V132.166C55.2642 135.338 52.6919 137.91 49.5204 137.91ZM71.3919 150.553C68.2205 150.553 65.6481 147.983 65.6481 144.811V70.2052C65.6481 67.0382 66.8555 64.9456 69.599 63.3599L90.306 51.3902C91.1709 50.87 92.1824 50.5704 93.2635 50.5704C96.435 50.5704 99.0073 53.1427 99.0073 56.3142C99.0073 58.4765 97.8114 60.3597 96.0456 61.3395L77.136 72.2685V144.806C77.136 147.977 74.5634 150.553 71.3919 150.553Z" fill="#4049E0"/>
<path d="M142 36.2722V27.0272H172.817V36.2722H162.544V109.205H152.272V36.2722H142ZM184.116 109.205V27.0272H194.388V109.205H184.116ZM209.796 109.205V27.0272H219.041L229.827 78.3882H230.854L241.64 27.0272H250.885V109.205H240.613V68.116L233.32 109.205H227.156L220.069 68.116V109.205H209.796ZM266.294 109.205V27.0272H289.92V35.245H276.566V61.9527H287.865V70.1704H276.566V98.9326H289.92V109.205H266.294ZM300.192 84.1406H310.567C310.772 97.3918 311.799 99.9598 315.497 99.9598C320.531 99.9598 320.531 95.7482 320.531 84.5515C320.531 68.116 300.192 72.533 300.192 50.6533C300.192 37.813 300.192 26 315.6 26C327.002 26 330.084 32.4715 330.803 47.9825H320.531C320.12 36.7858 318.887 34.2177 315.6 34.2177C310.567 34.2177 310.567 39.7647 310.567 50.6533C310.567 66.5752 331.008 60.9255 331.008 84.5515C331.008 98.9326 331.008 110.232 315.497 110.232C303.582 110.232 300.808 103.144 300.192 84.1406ZM340.253 27.0272H350.526L356.689 58.6656H357.716L363.879 27.0272H374.152L362.339 73.4575V109.205H352.066V73.4575L340.253 27.0272ZM385.451 109.205V27.0272H394.696L408.153 77.361L408.05 76.3337V27.0272H418.322V109.205H409.077L395.62 64.0071L395.723 65.0343V109.205H385.451ZM432.703 65.9588C432.703 37.2994 432.703 26 447.084 26C457.664 26 460.541 32.4715 461.26 47.9825H451.707C451.296 36.7858 450.166 34.2177 447.084 34.2177C442.359 34.2177 442.359 39.2511 442.359 65.9588C442.359 95.6455 442.359 99.9598 447.084 99.9598C450.474 99.9598 451.501 97.3918 451.707 84.1406H461.363C460.746 103.144 458.178 110.232 447.084 110.232C432.703 110.232 432.703 98.8298 432.703 65.9588ZM501.424 88.2495H510.977C511.388 99.4462 512.518 102.014 516.627 102.014C521.558 102.014 521.866 99.6516 522.277 88.3522V85.0651C522.277 75.7174 519.709 74.382 516.627 74.382H505.122L518.476 35.3477H503.068V27.1299H531.008L517.141 66.1643H518.99C528.748 66.1643 531.83 75.7174 531.83 85.0651V88.3522C531.008 105.199 528.543 110.232 516.627 110.232C505.019 110.232 502.143 103.76 501.424 88.2495ZM547.238 65.9588C547.238 37.2994 547.238 26 562.749 26C574.049 26 577.13 32.4715 577.952 47.9825H567.68C567.269 36.7858 566.036 34.2177 562.749 34.2177C557.921 34.2177 557.613 38.7375 557.613 62.1581H562.749C574.049 62.1581 578.055 68.6296 578.055 84.1406C577.438 103.144 574.665 110.232 562.749 110.232C547.238 110.232 547.238 98.8298 547.238 65.9588ZM557.613 70.3759C557.613 96.0564 557.921 99.9598 562.749 99.9598C566.344 99.9598 567.474 97.3918 567.68 84.1406C567.68 72.9439 566.036 70.3759 562.749 70.3759H557.613ZM593.463 65.9588C593.463 37.2994 594.079 26 609.488 26C624.896 26 625.512 37.2994 625.512 65.9588C625.512 98.8298 624.896 110.232 609.488 110.232C594.079 110.232 593.463 98.8298 593.463 65.9588ZM603.735 65.9588V76.1283L615.137 48.8043C614.829 36.8885 613.699 34.2177 609.488 34.2177C603.735 34.2177 603.735 39.2511 603.735 65.9588ZM603.838 83.3188C604.043 97.4945 605.173 99.9598 609.488 99.9598C615.24 99.9598 615.24 95.6455 615.24 65.9588V55.9948L603.838 83.3188Z" fill="#4049E0"/>
<path d="M158.512 125.44H151.847V154.552H148.665V125.44H142V122.301H158.512V125.44ZM187.453 154.552L183.755 154.552L177.004 141.522H171.414V154.552H168.533V122.301H175.929C178.882 122.301 181.218 123.147 182.938 124.838C184.658 126.529 185.518 128.852 185.518 131.804C185.518 132.722 185.396 133.653 185.153 134.599C184.909 135.545 184.558 136.434 184.099 137.265C183.64 138.097 183.074 138.849 182.4 139.523C181.727 140.197 180.96 140.72 180.1 141.093L187.453 154.552ZM182.465 131.589C182.465 130.586 182.293 129.683 181.949 128.88C181.605 128.077 181.132 127.397 180.53 126.838C179.928 126.279 179.211 125.849 178.38 125.548C177.549 125.247 176.646 125.096 175.671 125.096H171.414V138.555H175.929C178.222 138.555 179.885 137.939 180.917 136.706C181.949 135.474 182.465 133.768 182.465 131.589ZM215.964 154.552H212.954L210.675 145.307H201.301L199.022 154.552H196.098L204.827 122.301H207.278L215.964 154.552ZM209.944 142.426L206.117 126.472L202.032 142.426H209.944ZM239.659 143.372C239.63 144.977 239.573 146.482 239.487 147.887C239.401 149.292 239.107 150.517 238.605 151.563C238.103 152.61 237.308 153.434 236.219 154.036C235.129 154.638 233.581 154.939 231.574 154.939C230.17 154.939 228.98 154.731 228.005 154.315C227.031 153.9 226.242 153.312 225.64 152.552C225.038 151.793 224.601 150.875 224.329 149.8C224.056 148.725 223.92 147.528 223.92 146.21V130.729C223.92 129.325 224.064 128.078 224.35 126.988C224.637 125.899 225.103 124.981 225.748 124.236C226.393 123.491 227.231 122.932 228.263 122.559C229.295 122.186 230.557 122 232.047 122C233.853 122 235.258 122.308 236.262 122.925C237.265 123.541 238.017 124.365 238.519 125.397C239.021 126.429 239.329 127.612 239.444 128.945C239.558 130.278 239.63 131.661 239.659 133.094H236.821C236.821 132.148 236.813 131.174 236.799 130.17C236.785 129.167 236.641 128.257 236.369 127.44C236.097 126.623 235.624 125.949 234.95 125.419C234.276 124.888 233.28 124.623 231.962 124.623C230.958 124.623 230.12 124.766 229.446 125.053C228.772 125.34 228.242 125.755 227.855 126.3C227.468 126.845 227.196 127.49 227.038 128.235C226.88 128.981 226.801 129.812 226.801 130.729L226.887 146.425C226.887 147.285 226.952 148.066 227.081 148.768C227.21 149.471 227.446 150.073 227.79 150.574C228.134 151.076 228.615 151.463 229.231 151.735C229.847 152.008 230.628 152.144 231.575 152.144C233.037 152.144 234.126 151.893 234.843 151.391C235.559 150.89 236.061 150.223 236.348 149.392C236.634 148.56 236.785 147.622 236.799 146.575C236.814 145.529 236.821 144.461 236.821 143.372H239.659ZM267.309 154.552H264.041L257.032 137.996L253.377 143.63V154.552H250.496V122.301H253.377V137.781L263.095 122.301H266.578L259.139 135.502L267.309 154.552ZM309.582 122.301L301.97 139.845V154.552H298.874V139.845L291.263 122.301H294.703L300.379 136.147L306.142 122.301H309.582ZM334.437 146.21C334.437 149.248 333.757 151.463 332.395 152.853C331.033 154.244 328.819 154.939 325.751 154.939C322.942 154.939 320.885 154.165 319.58 152.617C318.276 151.069 317.624 148.933 317.624 146.21V130.729C317.624 127.777 318.319 125.583 319.71 124.15C321.1 122.717 323.286 122 326.267 122C329.105 122 331.177 122.753 332.481 124.258C333.785 125.763 334.437 127.891 334.437 130.643V146.21ZM331.427 146.124L331.427 130.6C331.427 128.966 330.997 127.605 330.137 126.515C329.277 125.426 327.973 124.881 326.224 124.881C324.131 124.881 322.677 125.426 321.859 126.515C321.042 127.605 320.634 129.138 320.634 131.116V145.952C320.634 146.783 320.727 147.564 320.913 148.295C321.1 149.026 321.401 149.664 321.816 150.209C322.232 150.753 322.763 151.183 323.408 151.499C324.053 151.814 324.834 151.972 325.751 151.972C327.758 151.972 329.206 151.484 330.094 150.51C330.983 149.535 331.427 148.073 331.427 146.124ZM362.303 146.21C362.303 149.076 361.608 151.248 360.218 152.724C358.827 154.201 356.684 154.939 353.789 154.939C351.037 154.939 348.965 154.151 347.575 152.574C346.185 150.997 345.49 148.876 345.49 146.21V122.301H348.543V146.081C348.543 146.883 348.65 147.636 348.865 148.338C349.08 149.041 349.403 149.657 349.833 150.187C350.263 150.718 350.8 151.133 351.445 151.434C352.09 151.735 352.843 151.886 353.703 151.886C355.796 151.886 357.25 151.305 358.067 150.144C358.884 148.983 359.293 147.428 359.293 145.479V122.301H362.303L362.303 146.21ZM392.448 154.552L388.75 154.552L381.999 141.522H376.409V154.552H373.527V122.301H380.924C383.876 122.301 386.213 123.147 387.933 124.838C389.653 126.529 390.513 128.852 390.513 131.804C390.513 132.722 390.391 133.653 390.147 134.599C389.904 135.545 389.553 136.434 389.094 137.265C388.635 138.097 388.069 138.849 387.395 139.523C386.722 140.197 385.955 140.72 385.095 141.093L392.448 154.552ZM387.46 131.589C387.46 130.586 387.288 129.683 386.944 128.88C386.6 128.077 386.127 127.397 385.525 126.838C384.923 126.279 384.206 125.849 383.375 125.548C382.543 125.247 381.64 125.096 380.666 125.096H376.409V138.555H380.924C383.217 138.555 384.88 137.939 385.912 136.706C386.944 135.474 387.46 133.768 387.46 131.589ZM447.19 122.301L439.794 154.552H437.042L431.667 128.235L426.335 154.552H423.626L416.23 122.301H419.326L424.744 148.102L430.678 122.387L430.635 122.301H432.742L432.979 123.355C433.136 124.057 433.344 124.974 433.602 126.107C433.86 127.239 434.154 128.543 434.484 130.02C434.813 131.496 435.157 133.008 435.516 134.556C435.874 136.104 436.225 137.638 436.569 139.157C436.913 140.677 437.229 142.06 437.515 143.307C437.802 144.554 438.046 145.608 438.246 146.468C438.447 147.328 438.576 147.872 438.633 148.102L444.051 122.301H447.19ZM472.562 146.21C472.562 149.248 471.881 151.463 470.52 152.853C469.158 154.244 466.943 154.939 463.876 154.939C461.066 154.939 459.01 154.165 457.705 152.617C456.401 151.069 455.749 148.933 455.749 146.21V130.729C455.749 127.777 456.444 125.583 457.834 124.15C459.225 122.717 461.411 122 464.392 122C467.23 122 469.301 122.753 470.606 124.258C471.91 125.763 472.562 127.891 472.562 130.643V146.21ZM469.552 146.124L469.552 130.6C469.552 128.966 469.122 127.605 468.262 126.515C467.402 125.426 466.098 124.881 464.349 124.881C462.256 124.881 460.801 125.426 459.984 126.515C459.167 127.605 458.759 129.138 458.759 131.116V145.952C458.759 146.783 458.852 147.564 459.038 148.295C459.225 149.026 459.526 149.664 459.941 150.209C460.357 150.753 460.887 151.183 461.532 151.499C462.177 151.814 462.959 151.972 463.876 151.972C465.883 151.972 467.33 151.484 468.219 150.51C469.108 149.535 469.552 148.073 469.552 146.124ZM502.449 154.552L498.751 154.552L492 141.522H486.41V154.552H483.529V122.301H490.925C493.877 122.301 496.214 123.147 497.934 124.838C499.654 126.529 500.514 128.852 500.514 131.804C500.514 132.722 500.392 133.653 500.148 134.599C499.905 135.545 499.554 136.434 499.095 137.265C498.636 138.097 498.07 138.849 497.396 139.523C496.723 140.197 495.956 140.72 495.096 141.093L502.449 154.552ZM497.461 131.589C497.461 130.586 497.289 129.683 496.945 128.88C496.601 128.077 496.128 127.397 495.526 126.838C494.924 126.279 494.207 125.849 493.376 125.548C492.544 125.247 491.641 125.096 490.667 125.096H486.41V138.555H490.925C493.218 138.555 494.881 137.939 495.913 136.706C496.945 135.474 497.461 133.768 497.461 131.589ZM528.81 154.552H525.542L518.532 137.996L514.877 143.63V154.552H511.996V122.301H514.877V137.781L524.596 122.301H528.079L520.64 135.502L528.81 154.552Z" fill="#4049E0"/>
</svg>
