<svg width="300" height="300" viewBox="0 0 300 300" fill="none" xmlns="http://www.w3.org/2000/svg">
<rect width="300" height="300" rx="50" fill="#4049E0"/>
<g filter="url(#filter0_d_31_2)">
<path d="M94.5513 130.69C90.7627 130.69 88.8049 127.351 88.8049 124.914L88.8319 100.9C88.8363 97.7332 90.0413 95.6407 92.7824 94.0549L135.362 69.4443C136.227 68.9241 137.238 68.6245 138.319 68.6245C141.491 68.6245 144.063 71.1968 144.063 74.3683C144.063 76.5306 142.867 78.4138 141.101 79.3936L100.324 102.966V114.981L178.11 70.0173C179.481 69.2245 180.772 68.8281 182.063 68.8281C183.354 68.8281 184.645 69.2245 186.016 70.0173L205.73 81.4126C208.473 82.9983 209.685 85.0909 209.683 88.2579L209.658 112.296C209.658 116.085 206.34 118.045 203.903 118.045C202.927 118.045 201.941 117.797 201.037 117.274L182.064 106.287L163.15 117.22C162.288 117.741 161.276 118.04 160.195 118.04C157.024 118.04 154.451 115.468 154.451 112.296C154.451 110.134 155.647 108.251 157.413 107.271L178.113 95.3058C179.485 94.5131 180.776 94.1167 182.067 94.1167C183.358 94.1167 184.648 94.5131 186.02 95.3058L198.195 102.343V90.3279L182.067 81.0049L97.4341 129.917C96.5579 130.422 95.5628 130.69 94.5513 130.69ZM138.329 231.816C137.248 231.816 136.234 231.519 135.372 230.998L114.665 219.029C111.923 217.443 110.716 215.35 110.716 212.183V147.534L97.5458 155.147C96.6831 155.667 95.6717 155.967 94.5906 155.967C91.4191 155.967 88.8468 153.394 88.8468 150.223C88.8468 148.061 90.0608 146.209 91.8086 145.198L113.558 132.615C114.435 132.111 115.43 131.843 116.442 131.843C119.541 131.843 122.176 134.388 122.176 137.584L122.201 210.118L141.111 221.047C142.877 222.026 144.073 223.91 144.073 226.072C144.073 229.243 141.5 231.816 138.329 231.816ZM138.325 206.534C135.154 206.534 132.581 203.962 132.581 200.791V124.938C132.581 121.767 135.154 119.194 138.325 119.194C141.497 119.194 144.069 121.767 144.069 124.938V200.791C144.069 203.962 141.497 206.534 138.325 206.534ZM160.197 219.177C157.025 219.177 154.453 216.607 154.453 213.436V138.83C154.453 135.663 155.66 133.57 158.404 131.984L179.111 120.015C179.976 119.494 180.987 119.195 182.068 119.195C185.24 119.195 187.812 121.767 187.812 124.939C187.812 127.101 186.616 128.984 184.85 129.964L165.941 140.893V213.43C165.941 216.602 163.368 219.177 160.197 219.177Z" fill="white"/>
</g>
<defs>
<filter id="filter0_d_31_2" x="84.8049" y="68.6245" width="128.878" height="171.191" filterUnits="userSpaceOnUse" color-interpolation-filters="sRGB">
<feFlood flood-opacity="0" result="BackgroundImageFix"/>
<feColorMatrix in="SourceAlpha" type="matrix" values="0 0 0 0 0 0 0 0 0 0 0 0 0 0 0 0 0 0 127 0" result="hardAlpha"/>
<feOffset dy="4"/>
<feGaussianBlur stdDeviation="2"/>
<feComposite in2="hardAlpha" operator="out"/>
<feColorMatrix type="matrix" values="0 0 0 0 0 0 0 0 0 0 0 0 0 0 0 0 0 0 0.25 0"/>
<feBlend mode="normal" in2="BackgroundImageFix" result="effect1_dropShadow_31_2"/>
<feBlend mode="normal" in="SourceGraphic" in2="effect1_dropShadow_31_2" result="shape"/>
</filter>
</defs>
</svg>
